<?xml version="1.0" encoding="UTF-8" standalone="no"?>
<svg
   xmlns:dc="http://purl.org/dc/elements/1.1/"
   xmlns:cc="http://creativecommons.org/ns#"
   xmlns:rdf="http://www.w3.org/1999/02/22-rdf-syntax-ns#"
   xmlns:svg="http://www.w3.org/2000/svg"
   xmlns="http://www.w3.org/2000/svg"
   xmlns:sodipodi="http://sodipodi.sourceforge.net/DTD/sodipodi-0.dtd"
   xmlns:inkscape="http://www.inkscape.org/namespaces/inkscape"
   width="17.766314mm"
   height="17.986456mm"
   viewBox="0 0 17.766314 17.986456"
   version="1.1"
   id="svg1061"
   inkscape:version="1.0 (4035a4fb49, 2020-05-01)"
   sodipodi:docname="logo-npc.svg">
  <defs
     id="defs1055" />
  <sodipodi:namedview
     id="base"
     pagecolor="#ffffff"
     bordercolor="#666666"
     borderopacity="1.0"
     inkscape:pageopacity="0.0"
     inkscape:pageshadow="2"
     inkscape:zoom="7.9195959"
     inkscape:cx="77.894825"
     inkscape:cy="22.148161"
     inkscape:document-units="mm"
     inkscape:current-layer="layer1"
     inkscape:document-rotation="0"
     showgrid="false"
     inkscape:pagecheckerboard="true"
     fit-margin-top="0"
     fit-margin-left="0"
     fit-margin-right="0"
     fit-margin-bottom="0" />
  <metadata
     id="metadata1058">
    <rdf:RDF>
      <cc:Work
         rdf:about="">
        <dc:format>image/svg+xml</dc:format>
        <dc:type
           rdf:resource="http://purl.org/dc/dcmitype/StillImage" />
        <dc:title />
      </cc:Work>
    </rdf:RDF>
  </metadata>
  <g
     inkscape:label="Layer 1"
     inkscape:groupmode="layer"
     id="layer1"
     transform="translate(-47.057317,-59.798439)">
    <path
       style="fill:#124868;fill-opacity:1"
       id="path861"
       d="m 55.514316,64.026939 a 4.2284999,4.2284999 0 0 1 -2.613926,3.908115 4.2284999,4.2284999 0 0 1 -4.610084,-0.923633 4.2284999,4.2284999 0 0 1 -0.906623,-4.613459 4.2284999,4.2284999 0 0 1 3.91773,-2.599494 l -0.0156,4.228471 z" />
    <path
       style="fill:#ce7c41;fill-opacity:1"
       d="m 47.057316,69.327682 h 3.449032 v 8.457213 h -3.449032 z"
       id="rect867" />
    <path
       style="fill:#ce7c41;fill-opacity:1"
       d="m 52.065356,76.177899 a 3.4254093,3.4254093 0 0 0 3.401859,-3.42511 3.4254093,3.4254093 0 0 0 -3.401859,-3.42511 z"
       id="circle873" />
    <path
       style="fill:#72b3c8;fill-opacity:1"
       id="circle893"
       d="m 63.633638,76.496877 a 4.2284999,4.2284999 0 0 1 -4.596196,0.990434 4.2284999,4.2284999 0 0 1 -2.670362,-3.869773 4.2284999,4.2284999 0 0 1 2.55694,-3.945634 4.2284999,4.2284999 0 0 1 4.623001,0.856638 l -2.951889,3.027633 z" />
    <path
       id="path863"
       d="m 56.366636,59.798439 v 8.457 h 8.456995 z"
       style="color:#000000;overflow:visible;fill:#a8c25e;fill-opacity:0.996078;stroke:none;stroke-width:0.529167;stroke-linecap:round;stroke-linejoin:round;paint-order:markers fill stroke;stop-color:#000000" />
    <path
       style="fill:#a8c25d;fill-opacity:0.99607843"
       id="path931"
       d="m 62.722967,61.920945 0.598202,-0.46399 1.043377,1.530179 -0.598203,0.463985 z m -1.043377,1.066189 1.043377,-1.530179 0.598202,0.46399 -1.043376,1.530174 z m -0.459086,-1.510434 0.227224,-0.745345 1.687952,0.582454 -0.227224,0.750279 z m 1.432904,-1.67826 h 0.73732 v 1.89051 h -0.73732 z m 0.255048,1.515369 1.687951,-0.582454 0.227224,0.745345 -1.687951,0.587388 z" />
  </g>
</svg>
