<?xml version="1.0" encoding="UTF-8" standalone="no"?>
<svg
   xmlns:dc="http://purl.org/dc/elements/1.1/"
   xmlns:cc="http://creativecommons.org/ns#"
   xmlns:rdf="http://www.w3.org/1999/02/22-rdf-syntax-ns#"
   xmlns:svg="http://www.w3.org/2000/svg"
   xmlns="http://www.w3.org/2000/svg"
   id="svg1061"
   version="1.1"
   viewBox="0 0 17.766314 17.986456"
   height="17.986456mm"
   width="17.766314mm">
  <defs
     id="defs1055" />
  <metadata
     id="metadata1058">
    <rdf:RDF>
      <cc:Work
         rdf:about="">
        <dc:format>image/svg+xml</dc:format>
        <dc:type
           rdf:resource="http://purl.org/dc/dcmitype/StillImage" />
        <dc:title></dc:title>
      </cc:Work>
    </rdf:RDF>
  </metadata>
  <g
     transform="translate(-47.057317,-59.798439)"
     id="layer1">
    <g
       id="gee">
      <circle
         d="m 55.514316,64.026939 a 4.2284999,4.2284999 0 0 1 -2.613926,3.908115 4.2284999,4.2284999 0 0 1 -4.610084,-0.923633 4.2284999,4.2284999 0 0 1 -0.906623,-4.613459 4.2284999,4.2284999 0 0 1 3.91773,-2.599494 l -0.0156,4.228471 z"
         id="path861"
         style="color:#000000;overflow:visible;fill:#124868;fill-opacity:1;stroke:none;stroke-width:0.529167;stroke-linecap:round;stroke-linejoin:round;paint-order:markers fill stroke;stop-color:#000000" />
    </g>
    <g
       id="pee">
      <rect
         ry="0"
         y="69.327682"
         x="47.057316"
         height="8.4572124"
         width="3.4490325"
         id="rect867"
         style="color:#000000;overflow:visible;fill:#ce7c41;fill-opacity:1;stroke:none;stroke-width:0.529167;stroke-linecap:round;stroke-linejoin:round;paint-order:markers fill stroke;stop-color:#000000" />
      <path
         d="m 52.065356,76.177899 a 3.4254093,3.4254093 0 0 0 3.401859,-3.42511 3.4254093,3.4254093 0 0 0 -3.401859,-3.42511 z"
         style="color:#000000;overflow:visible;fill:#ce7c41;fill-opacity:1;stroke:none;stroke-width:0.529167;stroke-linecap:round;stroke-linejoin:round;paint-order:markers fill stroke;stop-color:#000000"
         id="circle873" />
    </g>
    <g
       id="cee">
      <circle
         d="M 98.925224,10.715044 A 4.2284999,4.2284999 0 0 1 96.311298,14.623159 4.2284999,4.2284999 0 0 1 91.701214,13.699526 4.2284999,4.2284999 0 0 1 90.794591,9.0860664 4.2284999,4.2284999 0 0 1 94.71232,6.4865729 l -0.0156,4.2284711 z"
         transform="rotate(44.062883)"
         style="color:#000000;overflow:visible;fill:#72b3c8;fill-opacity:1;stroke:none;stroke-width:0.529167;stroke-linecap:round;stroke-linejoin:round;paint-order:markers fill stroke;stop-color:#000000"
         id="circle893" />
    </g>
    <g
       id="el">
      <path
         id="path863"
         d="m 56.366636,59.798439 v 8.457 h 8.456995 z"
         style="color:#000000;overflow:visible;fill:#a8c25e;fill-opacity:0.996078;stroke:none;stroke-width:0.529167;stroke-linecap:round;stroke-linejoin:round;paint-order:markers fill stroke;stop-color:#000000" />
      <path
         id="path931"
         style="color:#000000;font-style:normal;font-variant:normal;font-weight:normal;font-stretch:normal;font-size:9.79827px;line-height:125%;font-family:Bahnschrift;-inkscape-font-specification:'Bahnschrift, Normal';font-variant-ligatures:normal;font-variant-caps:normal;font-variant-numeric:normal;font-variant-east-asian:normal;text-align:center;writing-mode:lr-tb;text-anchor:middle;fill:#a9c160;fill-opacity:0.996078;stroke:none;stroke-width:0.529168;stroke-linecap:round;stroke-linejoin:round;paint-order:markers fill stroke"
         d="m 62.722967,61.920945 0.598202,-0.46399 1.043377,1.530179 -0.598203,0.463985 z m -1.043377,1.066189 1.043377,-1.530179 0.598202,0.46399 -1.043376,1.530174 z m -0.459086,-1.510434 0.227224,-0.745345 1.687952,0.582454 -0.227224,0.750279 z m 1.432904,-1.67826 h 0.73732 v 1.89051 h -0.73732 z m 0.255048,1.515369 1.687951,-0.582454 0.227224,0.745345 -1.687951,0.587388 z" />
    </g>
  </g>
</svg>
