<?xml version="1.0" standalone="no"?>
<!DOCTYPE svg PUBLIC "-//W3C//DTD SVG 20010904//EN"
 "http://www.w3.org/TR/2001/REC-SVG-20010904/DTD/svg10.dtd">
<svg version="1.0" xmlns="http://www.w3.org/2000/svg"
 width="700.000000pt" height="700.000000pt" viewBox="0 0 700.000000 700.000000"
 preserveAspectRatio="xMidYMid meet">
<metadata>
Created by potrace 1.11, written by Peter Selinger 2001-2013
</metadata>
<g transform="translate(0.000000,700.000000) scale(0.100000,-0.100000)"
fill="#000000" stroke="none">
<path d="M1527 6994 c-1 -1 -33 -4 -71 -8 -38 -4 -71 -8 -75 -10 -4 -3 -27 -7
-51 -11 -101 -14 -302 -84 -434 -152 -201 -103 -420 -282 -540 -443 -22 -30
-44 -57 -47 -60 -11 -9 -103 -162 -136 -225 -60 -116 -127 -319 -149 -450 -16
-97 -19 -144 -19 -275 0 -215 17 -329 76 -510 196 -597 700 -1019 1344 -1124
91 -15 414 -16 480 -2 17 4 55 11 85 17 640 124 1163 626 1300 1248 27 125 30
145 36 261 l7 105 -832 0 c-827 0 -831 0 -832 20 0 11 0 381 1 823 l1 803 -71
-3 c-39 -1 -72 -3 -73 -4z"/>
<path d="M6145 6740 c0 -143 -4 -260 -8 -260 -8 0 -56 16 -344 115 l-123 43
-31 -102 c-17 -55 -37 -119 -44 -141 -7 -22 -10 -43 -7 -47 6 -6 119 -46 370
-130 50 -17 92 -33 92 -37 0 -3 -45 -71 -100 -150 -55 -79 -100 -147 -100
-151 0 -5 -3 -10 -8 -12 -4 -1 -24 -26 -44 -55 l-37 -52 62 -48 c34 -26 64
-50 67 -53 3 -3 28 -22 56 -43 l51 -37 144 210 c79 115 146 209 149 209 3 1
15 -14 27 -32 21 -32 113 -165 212 -310 35 -50 58 -74 65 -69 6 5 59 45 118
91 l107 82 -47 67 c-25 37 -49 69 -52 72 -3 3 -9 13 -15 22 -12 21 -92 136
-139 203 -20 27 -36 53 -36 56 0 3 21 13 48 22 194 64 408 140 414 145 6 6
-39 166 -74 263 l-9 26 -231 -79 c-127 -43 -233 -78 -237 -78 -3 0 -6 116 -6
258 l0 257 -145 3 -145 3 0 -261z"/>
<path d="M3670 5350 l0 -1640 1660 0 c913 0 1660 2 1660 5 0 2 -40 44 -90 92
-49 48 -342 338 -650 643 -309 305 -664 656 -790 780 -126 124 -485 479 -800
790 -830 821 -982 970 -986 970 -2 0 -4 -738 -4 -1640z"/>
<path d="M0 1645 l0 -1645 679 0 680 0 0 1645 0 1645 -679 0 -680 0 0 -1645z"/>
<path d="M1974 1958 l1 -1333 45 2 c88 5 166 14 230 29 88 19 173 45 185 56 5
4 15 8 22 8 13 0 155 67 213 101 124 73 289 225 383 352 224 303 305 673 231
1061 -3 16 -7 33 -9 36 -2 4 -7 21 -10 39 -9 53 -81 226 -126 304 -159 273
-406 483 -694 590 -63 23 -133 45 -175 53 -80 17 -178 31 -232 33 l-65 2 1
-1333z"/>
<path d="M5127 3279 c-27 -4 -68 -10 -92 -13 -67 -10 -250 -64 -340 -101 -496
-205 -858 -626 -980 -1140 -36 -149 -39 -183 -39 -390 0 -179 6 -236 39 -375
3 -14 8 -36 11 -49 9 -44 76 -214 112 -286 145 -289 369 -532 636 -687 195
-114 412 -190 636 -223 119 -18 381 -13 510 10 322 56 627 208 858 428 l53 50
-53 50 c-29 27 -140 133 -247 236 -107 102 -209 200 -226 216 -18 17 -119 113
-225 215 -106 102 -210 201 -230 220 -142 134 -210 202 -210 209 0 4 10 16 23
27 77 69 1122 1138 1122 1148 0 20 -110 112 -224 187 -211 139 -426 222 -685
263 -96 15 -371 18 -449 5z"/>
</g>
</svg>
